<?xml version="1.0" encoding="utf-8"?>
<!-- Generator: Adobe Illustrator 15.1.0, SVG Export Plug-In . SVG Version: 6.00 Build 0)  -->
<!DOCTYPE svg PUBLIC "-//W3C//DTD SVG 1.1//EN" "http://www.w3.org/Graphics/SVG/1.1/DTD/svg11.dtd">
<svg version="1.1" id="Layer_1" xmlns="http://www.w3.org/2000/svg" xmlns:xlink="http://www.w3.org/1999/xlink" x="0px" y="0px"
	 width="800px" height="600px" viewBox="0 0 800 600" enable-background="new 0 0 800 600" xml:space="preserve">
<g id="Layer_1_1_" display="none">
	
		<linearGradient id="SVGID_1_" gradientUnits="userSpaceOnUse" x1="420.9001" y1="3.4006" x2="420.9001" y2="603.4011" gradientTransform="matrix(1 0 0 -1 -20.8999 603.4009)">
		<stop  offset="0" style="stop-color:#F1D18F"/>
		<stop  offset="1" style="stop-color:#7FB6E7"/>
	</linearGradient>
	<rect x="0" y="0" display="inline" fill="url(#SVGID_1_)" width="800" height="600"/>
	
		<linearGradient id="SVGID_2_" gradientUnits="userSpaceOnUse" x1="420.9001" y1="3.4006" x2="420.9001" y2="603.4011" gradientTransform="matrix(1 0 0 -1 -20.8999 603.4009)">
		<stop  offset="0" style="stop-color:#F1D18F"/>
		<stop  offset="1" style="stop-color:#7FB6E7"/>
	</linearGradient>
	<rect x="0" y="0" display="inline" fill="url(#SVGID_2_)" width="800" height="600"/>
	<rect x="792" y="581" display="inline" fill="#F1598F" width="8" height="19"/>
</g>
<g id="Layer_1_copy">
	
		<linearGradient id="SVGID_3_" gradientUnits="userSpaceOnUse" x1="384.1223" y1="4.4006" x2="384.1223" y2="604.4011" gradientTransform="matrix(1 0 0 -1 -20.8999 603.4009)">
		<stop  offset="0" style="stop-color:#F1D18F"/>
		<stop  offset="1" style="stop-color:#7FB6E7"/>
	</linearGradient>
	<rect x="0" y="-1" fill="url(#SVGID_3_)" width="726.445" height="600"/>
	
		<linearGradient id="SVGID_4_" gradientUnits="userSpaceOnUse" x1="384.1223" y1="4.4006" x2="384.1223" y2="604.4011" gradientTransform="matrix(1 0 0 -1 -20.8999 603.4009)">
		<stop  offset="0" style="stop-color:#F1D18F"/>
		<stop  offset="1" style="stop-color:#7FB6E7"/>
	</linearGradient>
	<rect x="0" y="-1" fill="url(#SVGID_4_)" width="726.445" height="600"/>
	
		<linearGradient id="SVGID_5_" gradientUnits="userSpaceOnUse" x1="420.9001" y1="4.4006" x2="420.9001" y2="604.4011" gradientTransform="matrix(1 0 0 -1 -20.8999 603.4009)">
		<stop  offset="0" style="stop-color:#FF996B"/>
		<stop  offset="0.5939" style="stop-color:#5E24A8"/>
		<stop  offset="1" style="stop-color:#301A75"/>
	</linearGradient>
	<rect x="0" y="-1" fill="url(#SVGID_5_)" width="800" height="600"/>
</g>
<polygon fill="#EFEABF" points="234.5,114.5 231.522,115.969 231.045,119.256 228.727,116.878 225.455,117.439 227,114.5 
	225.455,111.561 228.727,112.123 231.045,109.745 231.522,113.031 "/>
<polygon fill="#EFEABF" points="256.5,163.5 252.942,162.294 249.931,164.54 249.98,160.784 246.912,158.615 250.5,157.5 
	251.615,153.913 253.784,156.98 257.54,156.932 255.293,159.943 "/>
<polygon fill="#EFEABF" points="198.5,233.5 199.706,229.943 197.459,226.932 201.216,226.98 203.385,223.913 204.5,227.5 
	208.087,228.615 205.02,230.784 205.068,234.54 202.057,232.294 "/>
<polygon fill="#EFEABF" points="221.5,228.227 222.293,223.9 219.179,220.793 223.539,220.211 225.531,216.289 227.432,220.256 
	231.778,220.939 228.593,223.972 229.286,228.316 225.417,226.225 "/>
<polygon fill="#EFEABF" points="252.226,216.289 249.062,217.851 248.554,221.343 246.092,218.816 242.614,219.413 244.256,216.289 
	242.614,213.166 246.092,213.762 248.554,211.236 249.062,214.728 "/>
<polygon fill="#EFEABF" points="181.532,321.925 177.91,323.713 177.329,327.71 174.51,324.818 170.528,325.5 172.408,321.925 
	170.528,318.35 174.51,319.032 177.329,316.14 177.91,320.137 "/>
<polygon fill="#EFEABF" points="275.5,315.5 272.013,312.937 267.925,314.356 269.285,310.248 266.672,306.798 271,306.823 
	273.473,303.272 274.787,307.395 278.929,308.65 275.413,311.173 "/>
<polygon fill="#EFEABF" points="187.408,153.913 179.264,153.924 174.656,160.638 172.13,152.897 164.32,150.59 170.901,145.794 
	170.682,137.653 177.277,142.431 184.952,139.707 182.446,147.455 "/>
<polygon fill="#EFEABF" points="155.5,93.5 152.53,93.485 150.834,95.923 149.93,93.094 147.088,92.233 149.5,90.5 149.439,87.531 
	151.833,89.289 154.638,88.314 153.706,91.134 "/>
<polygon fill="#EFEABF" points="155.5,31.5 152.995,32.737 152.594,35.5 150.644,33.5 147.891,33.972 149.191,31.5 147.891,29.028 
	150.644,29.5 152.594,27.5 152.995,30.264 "/>
<polygon fill="#EFEABF" points="176.404,27.5 174.906,25.277 172.226,25.25 173.878,23.139 173.076,20.581 175.594,21.5 
	177.778,19.947 177.682,22.626 179.835,24.223 177.258,24.96 "/>
<polygon fill="#EFEABF" points="335.5,164.54 333.713,165.422 333.427,167.393 332.036,165.967 330.073,166.303 331,164.54 
	330.073,162.777 332.036,163.114 333.427,161.687 333.713,163.658 "/>
<polygon fill="#EFEABF" points="330.073,141.5 326.219,140.553 323.254,143.191 322.964,139.233 319.539,137.228 323.214,135.73 
	324.062,131.853 326.623,134.884 330.572,134.493 328.48,137.865 "/>
<polygon fill="#EFEABF" points="313.5,119.256 311.713,120.137 311.427,122.109 310.036,120.682 308.073,121.019 309,119.256 
	308.073,117.492 310.036,117.829 311.427,116.403 311.713,118.374 "/>
<polygon fill="#EFEABF" points="315.539,204.5 314.657,202.714 312.686,202.427 314.112,201.037 313.776,199.073 315.539,200 
	317.302,199.073 316.966,201.037 318.392,202.427 316.421,202.714 "/>
<polygon fill="#EFEABF" points="302.5,211.236 300.713,212.117 300.427,214.089 299.036,212.662 297.073,212.999 298,211.236 
	297.073,209.472 299.036,209.809 300.427,208.383 300.713,210.354 "/>
<polygon fill="#EFEABF" points="432.5,31.5 430.118,32.676 429.736,35.304 427.882,33.403 425.263,33.851 426.5,31.5 
	425.263,29.149 427.882,29.598 429.736,27.696 430.118,30.324 "/>
<polygon fill="#EFEABF" points="480.5,98.5 479.316,97.603 477.907,98.07 478.394,96.667 477.515,95.47 479,95.5 479.866,94.294 
	480.297,95.716 481.711,96.167 480.492,97.015 "/>
<polygon fill="#EFEABF" points="594.5,122.109 594.5,122.109 594.5,122.109 594.5,122.109 594.5,122.109 594.5,122.109 
	594.5,122.109 594.5,122.109 594.5,122.109 594.5,122.109 "/>
<polygon fill="#EFEABF" points="608.5,143.191 608.025,139.227 604.49,137.371 608.113,135.695 608.786,131.76 611.5,134.687 
	615.45,134.111 613.505,137.597 615.273,141.176 611.357,140.403 "/>
<polygon fill="#EFEABF" points="594.5,122.109 590.683,121.879 588.332,124.892 587.371,121.193 583.778,119.886 587,117.829 
	587.132,114.009 590.084,116.437 593.759,115.382 592.361,118.94 "/>
<polygon fill="#EFEABF" points="706.5,35.304 704.118,36.48 703.736,39.109 701.882,37.206 699.263,37.656 700.5,35.304 
	699.263,32.953 701.882,33.403 703.736,31.5 704.118,34.129 "/>
<polygon fill="#EFEABF" points="716.5,39.109 714.714,39.99 714.427,41.962 713.036,40.535 711.073,40.872 712,39.109 
	711.073,37.345 713.036,37.682 714.427,36.256 714.714,38.227 "/>
<polygon fill="#EFEABF" points="729.5,41.962 725.927,43.725 725.354,47.668 722.573,44.815 718.645,45.489 720.5,41.962 
	718.645,38.435 722.573,39.109 725.354,36.255 725.927,40.198 "/>
<polygon fill="#EFEABF" points="738.5,39.109 735.875,38.291 733.714,39.99 733.679,37.241 731.396,35.711 734,34.829 
	734.75,32.184 736.393,34.388 739.14,34.284 737.552,36.528 "/>
<polygon fill="#EFEABF" points="736.984,27.696 735.855,28.253 735.674,29.5 734.795,28.598 733.553,28.811 734.139,27.696 
	733.553,26.581 734.795,26.794 735.674,25.892 735.855,27.139 "/>
<polygon fill="#EFEABF" points="729.5,29.5 727.481,29.16 726.056,30.631 725.756,28.606 723.917,27.706 725.75,26.794 
	726.038,24.767 727.471,26.229 729.488,25.876 728.541,27.691 "/>
<polygon fill="#E5E1C3" points="552.582,248.594 547.686,247.677 544.156,251.191 543.514,246.251 539.083,243.98 543.582,241.844 
	544.373,236.926 547.795,240.545 552.716,239.778 550.332,244.151 "/>
<polygon fill="#E5E1C3" points="38.107,137.475 37.348,133.686 33.796,132.164 37.165,130.271 37.516,126.422 40.357,129.041 
	44.126,128.186 42.512,131.698 44.491,135.017 40.653,134.568 "/>
<polygon fill="#E5E1C3" points="56.106,47.668 56.106,47.668 56.106,47.668 56.106,47.668 56.106,47.668 56.106,47.668 
	56.106,47.668 56.106,47.668 56.106,47.668 56.106,47.668 "/>
<polygon fill="#E5E1C3" points="56.106,216.289 56.106,216.289 56.106,216.289 56.106,216.289 56.106,216.289 56.106,216.289 
	56.106,216.289 56.106,216.289 56.106,216.289 56.106,216.289 "/>
<polygon fill="#E5E1C3" points="33.796,277.092 33.796,277.092 33.796,277.092 33.796,277.092 33.796,277.092 33.796,277.092 
	33.796,277.092 33.796,277.092 33.796,277.092 33.796,277.092 "/>
<polygon fill="#E5E1C3" points="609.97,27.699 609.97,27.699 609.97,27.699 609.97,27.699 609.97,27.699 609.97,27.699 
	609.97,27.699 609.97,27.699 609.97,27.699 609.97,27.699 "/>
<polygon fill="#E5E1C3" points="680.075,199.073 675.609,201.277 674.893,206.205 671.418,202.639 666.51,203.481 668.826,199.073 
	666.51,194.665 671.418,195.507 674.893,191.941 675.609,196.869 "/>
<polygon fill="#E2DFCF" points="594.5,19.947 593.622,18.168 591.658,17.883 593.079,16.497 592.744,14.542 594.5,15.465 
	596.256,14.542 595.921,16.497 597.342,17.883 595.378,18.168 "/>
<polygon fill="#E2DFCF" points="764.071,116.268 764.949,118.047 766.913,118.332 765.492,119.717 765.827,121.673 764.071,120.749 
	762.315,121.673 762.65,119.717 761.229,118.332 763.193,118.047 "/>
<polygon fill="#E2DFCF" points="89.105,208.383 86.177,206.952 83.34,208.553 83.795,205.327 81.396,203.123 84.605,202.559 
	85.96,199.596 87.488,202.474 90.724,202.847 88.459,205.189 "/>
<polygon fill="#E2DFCF" points="292.406,12.807 293.848,15.728 297.073,16.197 294.74,18.471 295.29,21.682 292.406,20.166 
	289.523,21.682 290.073,18.471 287.74,16.197 290.965,15.728 "/>
<polygon fill="#E2DFCF" points="766.913,246.284 768.355,249.206 771.579,249.675 769.246,251.949 769.797,255.16 766.913,253.644 
	764.029,255.16 764.58,251.949 762.247,249.675 765.47,249.206 "/>
<polygon fill="#E2DFCF" points="447.587,194.167 449.029,197.088 452.253,197.557 449.92,199.831 450.47,203.042 447.587,201.526 
	444.703,203.042 445.254,199.831 442.921,197.557 446.144,197.088 "/>
<polygon fill="#E2DFCF" points="442.921,300 448.478,297.258 449.369,291.125 453.694,295.563 459.802,294.515 456.919,300 
	459.802,305.486 453.694,304.438 449.369,308.875 448.478,302.742 "/>
<polygon fill="#E2DFCF" points="702.882,109.745 702.882,109.745 702.882,109.745 702.882,109.745 702.882,109.745 702.882,109.745 
	702.882,109.745 702.882,109.745 702.882,109.745 702.882,109.745 "/>
<polygon fill="#E2DFCF" points="560.081,67.103 560.081,67.103 560.081,67.103 560.081,67.103 560.081,67.103 560.081,67.103 
	560.081,67.103 560.081,67.103 560.081,67.103 560.081,67.103 "/>
<polygon fill="#E2DFCF" points="63.606,39.109 61.653,37.401 59.138,38.042 60.158,35.656 58.772,33.463 61.356,33.696 
	63.013,31.699 63.591,34.229 66.002,35.189 63.774,36.519 "/>
<polygon fill="#E2DFCF" points="615.45,233.54 616.445,235.556 618.67,235.88 617.06,237.449 617.44,239.665 615.45,238.619 
	613.46,239.665 613.84,237.449 612.23,235.88 614.455,235.556 "/>
<polygon fill="#E2DFCF" points="609.97,296.615 610.965,298.631 613.19,298.954 611.58,300.524 611.96,302.74 609.97,301.694 
	607.98,302.74 608.36,300.524 606.75,298.954 608.975,298.631 "/>
<polygon fill="#E2DFCF" points="718.645,273.706 719.64,275.722 721.865,276.046 720.256,277.615 720.635,279.831 718.645,278.785 
	716.655,279.831 717.035,277.615 715.426,276.046 717.65,275.722 "/>
<polygon fill="#E2DFCF" points="33.796,277.092 33.796,277.092 33.796,277.092 33.796,277.092 33.796,277.092 33.796,277.092 
	33.796,277.092 33.796,277.092 33.796,277.092 33.796,277.092 "/>
<polygon fill="#E2DFCF" points="680.075,87.531 676.036,89.524 675.388,93.982 672.244,90.757 667.804,91.518 669.901,87.531 
	667.804,83.544 672.244,84.305 675.388,81.08 676.036,85.537 "/>
<polygon fill="#E2DFCF" points="400,74.298 401.993,78.337 406.451,78.985 403.225,82.128 403.986,86.568 400,84.472 
	396.013,86.568 396.774,82.128 393.549,78.985 398.007,78.337 "/>
<polygon fill="#E2DFCF" points="702.882,142.363 704.875,146.402 709.333,147.05 706.107,150.194 706.868,154.633 702.882,152.537 
	698.895,154.633 699.656,150.194 696.43,147.05 700.888,146.402 "/>
<polygon fill="#E2DFCF" points="800,-119.671 801.993,-115.632 806.451,-114.984 803.225,-111.841 803.986,-107.401 800,-109.497 
	796.013,-107.401 796.774,-111.841 793.549,-114.984 798.007,-115.632 "/>
<polygon fill="#EFEABF" points="726.709,19.947 725.046,20.767 724.779,22.602 723.485,21.275 721.658,21.588 722.521,19.947 
	721.658,18.306 723.485,18.619 724.779,17.292 725.046,19.127 "/>
<polygon fill="#EFEABF" points="758.5,-62.624 759.32,-59.962 762.105,-60.005 759.827,-58.402 760.728,-55.765 758.5,-57.437 
	756.271,-55.765 757.173,-58.402 754.894,-60.005 757.679,-59.962 "/>
</svg>
